HIERARCHY
ROOT Hips
{
	OFFSET 228.634003 92.561920 -263.051910
	CHANNELS 6 Xposition Yposition Zposition Zrotation Yrotation Xrotation 
	JOINT LeftUpLeg
	{
		OFFSET 0.103458 1.857820 10.548502
		CHANNELS 3 Zrotation Yrotation Xrotation
		JOINT LeftLeg
		{
			OFFSET 43.500000 -0.000023 -0.000011
			CHANNELS 3 Zrotation Yrotation Xrotation
			JOINT LeftFoot
			{
				OFFSET 42.372192 0.000038 0.000002
				CHANNELS 3 Zrotation Yrotation Xrotation
				JOINT LeftToe
				{
					OFFSET 17.299992 -0.000004 0.000006
					CHANNELS 3 Zrotation Yrotation Xrotation
					End Site
					{
						OFFSET 0.000000 0.000000 0.000000
					}
				}
			}
		}
	}
	JOINT RightUpLeg
	{
		OFFSET 0.103461 1.857814 -10.548508
		CHANNELS 3 Zrotation Yrotation Xrotation
		JOINT RightLeg
		{
			OFFSET 43.500042 -0.000015 0.000008
			CHANNELS 3 Zrotation Yrotation Xrotation
			JOINT RightFoot
			{
				OFFSET 42.372253 0.000008 0.000006
				CHANNELS 3 Zrotation Yrotation Xrotation
				JOINT RightToe
				{
					OFFSET 17.299973 -0.000014 0.000011
					CHANNELS 3 Zrotation Yrotation Xrotation
					End Site
					{
						OFFSET 0.000000 0.000000 0.000000
					}
				}
			}
		}
	}
	JOINT Spine
	{
		OFFSET 6.901966 -2.603737 -0.000007
		CHANNELS 3 Zrotation Yrotation Xrotation
		JOINT Spine1
		{
			OFFSET 12.588102 0.000017 0.000001
			CHANNELS 3 Zrotation Yrotation Xrotation
			JOINT Spine2
			{
				OFFSET 12.343197 -0.000013 0.000000
				CHANNELS 3 Zrotation Yrotation Xrotation
				JOINT Neck
				{
					OFFSET 25.832905 -0.000008 0.000000
					CHANNELS 3 Zrotation Yrotation Xrotation
					JOINT Head
					{
						OFFSET 11.766610 0.000009 -0.000002
						CHANNELS 3 Zrotation Yrotation Xrotation
						End Site
						{
							OFFSET 0.000000 0.000000 0.000000
						}
					}
				}
				JOINT LeftShoulder
				{
					OFFSET 19.745903 -1.480377 6.000115
					CHANNELS 3 Zrotation Yrotation Xrotation
					JOINT LeftArm
					{
						OFFSET 11.284125 -0.000014 -0.000024
						CHANNELS 3 Zrotation Yrotation Xrotation
						JOINT LeftForeArm
						{
							OFFSET 33.000046 -0.000012 0.000029
							CHANNELS 3 Zrotation Yrotation Xrotation
							JOINT LeftHand
							{
								OFFSET 25.199989 0.000034 0.000012
								CHANNELS 3 Zrotation Yrotation Xrotation
								End Site
								{
									OFFSET 0.000000 0.000000 0.000000
								}
							}
						}
					}
				}
				JOINT RightShoulder
				{
					OFFSET 19.746098 -1.480362 -6.000071
					CHANNELS 3 Zrotation Yrotation Xrotation
					JOINT RightArm
					{
						OFFSET 11.284137 -0.000006 -0.000008
						CHANNELS 3 Zrotation Yrotation Xrotation
						JOINT RightForeArm
						{
							OFFSET 33.000095 0.000017 0.000000
							CHANNELS 3 Zrotation Yrotation Xrotation
							JOINT RightHand
							{
								OFFSET 25.199778 0.000144 0.000423
								CHANNELS 3 Zrotation Yrotation Xrotation
								End Site
								{
									OFFSET 0.000000 0.000000 0.000000
								}
							}
						}
					}
				}
			}
		}
	}
}
MOTION
Frames: 14
Frame Time: 0.033333
124.853996 37.877979 175.068604 144.076202 -25.734351 11.128294 144.359695 -38.150404 163.381403 -96.757553 1.562366 -1.144864 100.071806 -1.438845 -27.865825 21.454555 0.003093 -0.000003 87.857297 -5.515103 -157.504818 -149.792619 -7.022008 18.163811 82.298192 -10.532667 7.930351 21.454553 -0.003111 -0.000020 15.615097 3.427108 -1.839242 21.163351 7.132193 -3.024770 20.843050 7.113942 -3.067929 -9.471665 22.882578 -5.078124 -24.482480 0.130422 0.935477 76.898019 -70.019438 102.916614 -22.973893 -1.041743 10.618957 -106.879606 -2.597112 3.234049 -31.249297 -11.146099 93.667288 -163.334944 85.217914 18.397475 -84.304841 -3.917760 32.425162 -86.824859 9.672098 -2.882619 -36.340862 32.826497 -75.684862 
124.981300 38.417488 173.980103 141.864696 -24.713469 14.500394 146.211291 -34.606700 169.569760 -92.576924 0.800350 0.834347 102.767190 -2.201715 -29.048682 21.454557 0.003082 0.000004 89.735838 -4.390596 -157.056758 -149.667217 -7.167244 18.537902 82.302215 -10.635732 8.636336 21.454560 -0.003109 -0.000018 15.645916 3.647652 -1.791321 21.229071 7.561375 -2.887302 20.908401 7.543946 -2.933103 -10.881751 22.816612 -5.442929 -23.947581 -0.994329 1.331626 78.132009 -69.455989 101.753112 -25.267335 0.340861 9.419049 -101.515394 -3.560580 3.065643 -33.776665 -8.878257 94.747510 -177.895187 85.102190 3.727917 -83.956105 -4.352225 32.077297 -83.351087 12.370255 -2.918537 -37.518666 32.087361 -75.905258 
124.666298 39.101929 173.188004 139.366212 -22.590239 18.749510 149.036066 -30.123006 175.472300 -87.768778 -0.152530 1.689682 104.557697 -2.255528 -27.723576 21.454553 0.003094 -0.000005 93.070138 -2.256393 -157.305486 -149.188298 -7.221500 19.121830 82.403097 -10.823992 9.708381 21.454553 -0.003108 -0.000018 15.698058 3.839603 -1.892634 21.327800 7.961525 -3.050197 21.006841 7.943109 -3.098443 -13.239563 23.000510 -6.475525 -22.846081 -2.314465 1.386493 79.252010 -69.526401 100.649770 -30.364323 2.352346 8.477339 -94.523357 -5.584595 2.896811 -35.719693 -6.729704 95.176193 166.767087 84.563322 -11.740915 -82.973930 -4.973267 31.605987 -79.037795 15.354759 -2.939590 -38.738740 31.858164 -75.924055 
124.046097 39.887390 172.672501 136.538992 -20.074001 23.341188 152.082782 -26.546404 179.923848 -83.689830 -0.485568 2.214657 104.568311 -2.546667 -26.068930 21.454555 0.003091 -0.000001 97.441316 0.569794 -159.956036 -148.528010 -7.001860 17.271020 82.519313 -9.222831 11.081479 21.454560 -0.003106 -0.000015 15.728773 4.072514 -1.875051 21.392267 8.420662 -2.970229 21.070891 8.402715 -3.021309 -15.541042 23.344067 -7.851339 -21.545321 -3.974646 1.255884 80.658387 -69.201633 99.297468 -38.055553 4.792851 10.649272 -85.269099 -11.359922 2.892247 -35.304367 -5.630907 95.003963 156.456971 83.290598 -22.191023 -80.734960 -5.537549 30.748753 -73.912796 18.243101 -2.921635 -39.817103 32.056817 -75.471896 
123.151100 40.751930 172.300903 133.998599 -17.455990 27.847993 153.905049 -24.177598 -176.716856 -81.841902 -1.269440 2.340517 102.558002 -2.992169 -24.908240 21.454551 0.003092 0.000003 102.697884 3.918702 -164.204195 -147.520816 -6.554628 13.354992 83.802337 -6.673677 10.509444 21.454565 -0.003109 -0.000017 15.659969 4.279628 -1.865784 21.256650 8.828337 -2.919247 20.934878 8.810690 -2.972847 -17.548564 23.525277 -9.135019 -20.848420 -5.601202 1.103261 82.536955 -69.209624 97.454109 -45.503178 8.681802 9.683400 -78.119271 -15.093139 2.842701 -28.352677 -5.303052 86.614503 148.055333 82.338040 -30.718882 -77.784134 -6.281477 29.828095 -67.932235 21.090347 -2.869862 -40.580961 32.919108 -73.910181 
122.189796 41.503960 171.936798 131.923000 -14.773880 31.699188 153.845216 -23.474901 -176.424087 -83.419880 -1.373818 2.254264 98.995505 -3.500985 -22.575689 21.454550 0.003087 0.000002 107.895030 7.128098 -168.214336 -146.315916 -6.111745 9.043290 85.041169 -3.749086 10.431647 21.454550 -0.003108 -0.000017 15.498550 4.242923 -1.839175 20.934081 8.747781 -2.885787 20.612367 8.730330 -2.938891 -18.861193 22.537363 -10.169662 -20.098802 -5.555437 -0.051417 84.252692 -69.606314 95.735114 -50.443662 15.363592 3.565888 -78.091404 -15.160312 2.846264 -15.650429 -6.517675 77.452166 140.421367 81.869257 -38.447425 -74.057378 -7.033029 28.282347 -61.225870 23.146242 -2.741724 -40.309990 35.618760 -70.522967 
121.195000 42.008629 171.563599 130.195304 -11.607981 35.408110 152.252539 -23.199489 -177.980837 -88.006769 -0.792389 1.290489 96.190066 -3.101727 -19.951980 21.454553 0.003098 -0.000005 113.157841 10.610901 -171.780105 -145.266007 -5.684757 4.992150 86.461603 -1.035270 10.366310 21.454551 -0.003108 -0.000018 15.325553 3.923308 -1.767283 20.589392 8.097807 -2.812796 20.268241 8.080814 -2.861900 -19.516743 21.462099 -11.052791 -19.853809 -5.912416 -1.055587 87.538074 -70.604915 92.415301 -53.185334 24.047856 -3.891600 -82.618330 -12.431234 2.854503 -5.874099 -8.527496 74.302165 134.513336 80.915892 -44.470651 -68.861257 -7.591530 26.014818 -54.488271 23.598830 -2.516036 -37.658811 39.051006 -65.957853 
120.148003 42.368320 171.176605 128.424591 -7.889176 39.455202 149.132481 -22.727200 179.765893 -95.560692 1.003132 0.736041 96.416043 -2.637994 -19.187951 21.454548 0.003087 0.000004 118.900575 14.629806 -174.340073 -144.315791 -5.334228 1.417272 87.741962 1.194581 9.517229 21.454550 -0.003108 -0.000019 15.318530 3.450741 -1.490776 20.590442 7.111173 -2.346483 20.269961 7.097009 -2.389554 -20.450189 19.221460 -12.231959 -19.356174 -5.969534 -2.871434 96.501810 -72.335166 83.342747 -53.999243 31.992101 -7.930128 -87.894071 -9.239077 2.858863 -7.534000 -9.739180 73.573507 134.244021 80.178109 -44.797445 -62.968163 -8.573366 24.399591 -48.909134 23.663081 -2.325078 -33.593240 41.825456 -60.946611 
119.081596 42.546009 170.772995 126.580112 -3.952012 44.143304 144.093441 -21.710099 179.297042 -105.635993 2.229382 -0.355212 96.302901 -1.785476 -17.679311 21.454550 0.003084 0.000003 125.548330 19.255295 -174.977767 -143.320496 -5.083024 -1.607147 88.989777 3.067818 8.810276 21.454565 -0.003108 -0.000021 15.417086 2.996386 -1.045419 20.809700 6.131523 -1.535991 20.489741 6.122272 -1.573108 -20.572632 16.200350 -13.253703 -19.112061 -4.941636 -5.392915 106.120110 -73.460344 73.624009 -50.644439 39.406763 -10.568184 -94.899181 -4.633743 2.846882 -9.183060 -8.192876 74.755778 135.934070 79.573582 -43.137535 -55.841864 -10.061847 23.313731 -43.961550 23.195169 -2.135907 -28.597565 44.976219 -54.095996 
117.883102 42.811451 170.351807 125.208719 -0.200869 48.820584 137.116553 -19.739696 178.489304 -116.436216 3.544864 -1.843137 96.461279 -0.640162 -16.169030 21.454557 0.003094 -0.000004 132.583753 23.522401 -173.740396 -141.838809 -5.001640 -3.811415 90.271079 4.412610 8.336171 21.454557 -0.003109 -0.000016 15.550912 2.545216 -0.512293 21.097754 5.140855 -0.551843 20.778281 5.137570 -0.582946 -20.213130 12.021228 -13.929886 -18.861765 -3.083812 -8.364727 114.138226 -74.498745 65.482875 -44.141569 44.765220 -7.669491 -102.017502 -2.931445 3.043831 -10.245198 -7.854203 74.961435 140.581713 79.966694 -38.417161 -49.223712 -10.971507 19.203396 -37.530786 21.786917 -1.862929 -18.345092 49.296463 -39.211317 
116.688797 43.252529 169.945099 124.309907 2.800218 53.394717 128.131357 -16.806102 176.217692 -126.147611 4.615082 -3.490050 97.116349 0.695567 -14.277342 21.454545 0.003098 0.000005 139.209651 26.964800 -171.135157 -139.837195 -5.013640 -5.569652 90.701149 5.472138 7.538171 21.454550 -0.003108 -0.000013 15.603946 2.111935 0.036811 21.217677 4.181050 0.460906 20.898673 4.183907 0.435608 -19.630911 8.426042 -14.739652 -18.452897 -1.738935 -11.038943 120.854419 -76.430800 58.556837 -36.038243 47.780725 -3.580145 -108.078598 -1.838495 3.233274 -10.385018 -9.034212 70.314817 145.788025 80.484873 -33.123282 -42.292610 -11.935596 13.455503 -31.748574 18.866873 -1.538912 -4.874730 49.513684 -18.790551 
115.622398 43.788681 169.722794 123.442501 5.222918 57.478788 118.152109 -13.025212 170.989906 -133.230203 5.250048 -4.724447 97.104417 1.678840 -12.281983 21.454558 0.003096 -0.000010 145.550662 29.447295 -168.343577 -137.471204 -5.019517 -7.619974 90.974903 6.845423 7.230365 21.454551 -0.003108 -0.000014 15.641068 1.714596 0.565657 21.298989 3.295591 1.437961 20.980418 3.304346 1.418034 -17.420136 4.264508 -15.155978 -19.593835 0.237744 -13.829665 129.426416 -78.005398 49.786086 -26.561620 47.842542 -0.531585 -112.311799 -1.024231 3.358711 -11.308096 -11.230043 62.791944 150.294952 81.120504 -28.530344 -35.529579 -13.938315 8.530485 -27.657111 16.622338 -1.315684 2.515947 44.171257 -8.703459 
114.798401 44.288189 169.650101 122.515985 7.212950 61.017215 108.060792 -8.809603 162.649549 -135.992495 5.396779 -4.828678 96.820636 1.876300 -10.573174 21.454548 0.003094 0.000003 151.463912 31.144303 -165.627812 -135.098000 -4.992323 -9.743004 91.153929 8.316593 7.105852 21.454562 -0.003109 -0.000021 15.667933 1.331848 1.013221 21.352276 2.453691 2.255331 21.034143 2.467407 2.240484 -15.165093 0.712796 -15.572874 -20.570332 1.394986 -15.981570 134.705701 -79.532266 44.341356 -15.908696 46.646357 0.854578 -114.654711 -0.480993 3.420145 -11.739785 -14.448193 54.919895 161.372016 82.236687 -17.279069 -30.459734 -16.240462 1.762154 -25.935055 16.515247 -1.279124 9.142400 34.386225 0.876144 
114.086899 44.742680 169.933395 120.793084 8.602051 63.496095 99.769803 -5.544009 154.149747 -133.777205 5.103036 -1.754169 95.810636 -0.307804 -10.555172 21.454550 0.003095 -0.000002 157.103763 31.484303 -162.717673 -132.543400 -4.975014 -11.483229 90.814919 9.470809 6.471642 21.454563 -0.003109 -0.000019 15.640629 1.025317 1.356521 21.293598 1.783341 2.878845 20.975776 1.800822 2.868052 -13.609348 -1.838573 -15.548010 -20.568831 1.852519 -16.949490 144.640307 -81.127655 34.201803 -4.193375 44.544663 2.390477 -114.056298 0.149501 3.351247 -10.830814 -18.777090 45.744547 176.118245 82.750720 -2.356680 -27.426831 -17.139354 -0.433914 -25.753923 17.102696 -1.313385 11.917499 17.641496 9.817886 
